<?xml version="1.0" encoding="UTF-8" standalone="no" ?>
<!DOCTYPE svg PUBLIC "-//W3C//DTD SVG 1.1//EN" "http://www.w3.org/Graphics/SVG/1.1/DTD/svg11.dtd">
<svg xmlns="http://www.w3.org/2000/svg" xmlns:xlink="http://www.w3.org/1999/xlink" version="1.1" width="512" height="512" viewBox="0 0 512 512" xml:space="preserve">
<desc>Created with Fabric.js 5.3.0</desc>
<defs>
</defs>
<g transform="matrix(0.9998476952 -0.0174524064 0.0174524064 0.9998476952 479.4279252459 211.8768806782)" id="s6lq533ggBJxoYMmQ2ddb"  >
<path style="stroke: rgb(0,0,0); stroke-width: 28; stroke-dasharray: none; stroke-linecap: butt; stroke-dashoffset: 0; stroke-linejoin: miter; stroke-miterlimit: 4; fill: rgb(255,255,255); fill-opacity: 0; fill-rule: nonzero; opacity: 1;" vector-effect="non-scaling-stroke"  transform=" translate(0.000005, 0)" d="M -16.66667 84.35374 L 16.666659999999997 -84.35374" stroke-linecap="round" />
</g>
<g transform="matrix(0.6896434337 0 0 0.6896434337 494.7705960502 126.3781614743)" id="5I1YWTbK_G9lOZE-8kp9t"  >
<path style="stroke: rgb(233,79,143); stroke-width: 0; stroke-dasharray: none; stroke-linecap: butt; stroke-dashoffset: 0; stroke-linejoin: miter; stroke-miterlimit: 4; fill: rgb(0,0,0); fill-rule: nonzero; opacity: 1;" vector-effect="non-scaling-stroke"  transform=" translate(0, 0)" d="M 0 -20.40816 C 11.26531 -20.40816 20.40816 -11.265299999999998 20.40816 0 C 20.40816 11.26531 11.265299999999998 20.40816 0 20.40816 C -11.26531 20.40816 -20.40816 11.265299999999998 -20.40816 0 C -20.40816 -11.26531 -11.265299999999998 -20.40816 0 -20.40816 z" stroke-linecap="round" />
</g>
<g transform="matrix(0.6896434337 0 0 0.6896434337 464.353571708 296.6764944909)" id="1Vm-ET7kknUivMj0XBIWr"  >
<path style="stroke: rgb(233,79,143); stroke-width: 0; stroke-dasharray: none; stroke-linecap: butt; stroke-dashoffset: 0; stroke-linejoin: miter; stroke-miterlimit: 4; fill: rgb(0,0,0); fill-rule: nonzero; opacity: 1;" vector-effect="non-scaling-stroke"  transform=" translate(0, 0)" d="M 0 -20.40816 C 11.26531 -20.40816 20.40816 -11.265299999999998 20.40816 0 C 20.40816 11.26531 11.265299999999998 20.40816 0 20.40816 C -11.26531 20.40816 -20.40816 11.265299999999998 -20.40816 0 C -20.40816 -11.26531 -11.265299999999998 -20.40816 0 -20.40816 z" stroke-linecap="round" />
</g>
<g transform="matrix(0.8311447592 0 0 0.8311447592 431.1414581844 232.8716287122)" id="TbAC2PmOZQ_u8bEHASRj7"  >
<path style="stroke: rgb(233,79,143); stroke-width: 0; stroke-dasharray: none; stroke-linecap: butt; stroke-dashoffset: 0; stroke-linejoin: miter; stroke-miterlimit: 4; fill: rgb(0,0,0); fill-rule: nonzero; opacity: 1;" vector-effect="non-scaling-stroke"  transform=" translate(0, 0)" d="M 0 -20.40816 C 11.26531 -20.40816 20.40816 -11.265299999999998 20.40816 0 C 20.40816 11.26531 11.265299999999998 20.40816 0 20.40816 C -11.26531 20.40816 -20.40816 11.265299999999998 -20.40816 0 C -20.40816 -11.26531 -11.265299999999998 -20.40816 0 -20.40816 z" stroke-linecap="round" />
</g>
<g transform="matrix(0.8311447592 0 0 0.8311447592 426.4547659036 182.4965658103)" id="gIaYvPIfOjxQxRbpKW1ZS"  >
<path style="stroke: rgb(233,79,143); stroke-width: 0; stroke-dasharray: none; stroke-linecap: butt; stroke-dashoffset: 0; stroke-linejoin: miter; stroke-miterlimit: 4; fill: rgb(0,0,0); fill-rule: nonzero; opacity: 1;" vector-effect="non-scaling-stroke"  transform=" translate(0, 0)" d="M 0 -20.40816 C 11.26531 -20.40816 20.40816 -11.265299999999998 20.40816 0 C 20.40816 11.26531 11.265299999999998 20.40816 0 20.40816 C -11.26531 20.40816 -20.40816 11.265299999999998 -20.40816 0 C -20.40816 -11.26531 -11.265299999999998 -20.40816 0 -20.40816 z" stroke-linecap="round" />
</g>
<g transform="matrix(0.9998476952 -0.0174524064 0.0174524064 0.9998476952 194.150730223 295.278269833)" id="rSJ0V349zXwlj8hOnXY9M"  >
<path style="stroke: rgb(0,0,0); stroke-width: 19; stroke-dasharray: none; stroke-linecap: butt; stroke-dashoffset: 0; stroke-linejoin: miter; stroke-miterlimit: 4; fill: rgb(0,0,0); fill-rule: nonzero; opacity: 1;" vector-effect="non-scaling-stroke"  transform=" translate(-0.0000163789, 0.0000056754)" d="M 147.74992 -107.58156 L 111.4596 -143.06543 L 89.24636 -158.98492 L 89.24636 -158.98492 C 72.04033 -171.31590999999997 52.166309999999996 -179.41085999999999 31.241229999999995 -182.61115999999998 L 16.896799999999995 -184.80500999999998 L 16.896799999999995 -184.80500999999998 C 2.091109999999995 -187.06940999999998 -12.993070000000003 -186.78085 -27.701320000000006 -183.95183999999998 C -49.68802000000001 -179.72288999999998 -75.40617 -174.33826999999997 -91.76620000000001 -161.61380999999997 C -109.20805000000001 -148.04792999999998 -120.89020000000001 -136.24705999999998 -134.1748 -122.65938999999997 L -134.1748 -122.65938999999997 C -140.79864 -115.88443999999997 -146.19981 -108.01407999999998 -150.13912 -99.39682999999997 L -160.31754999999998 -77.13151999999997 L -160.31754999999998 -77.13151999999997 C -166.72545 -63.11423999999997 -170.83647 -48.157329999999966 -172.49302999999998 -32.83411999999996 L -173.39431999999996 -24.497209999999964 L -173.39431999999996 -24.497209999999964 C -175.41275999999996 -5.826679999999964 -174.27111999999997 13.050490000000035 -170.01734999999996 31.34169000000004 L -167.10312999999996 43.872830000000036 L -167.10312999999996 43.872830000000036 C -162.61537999999996 63.170170000000034 -154.63176999999996 81.48258000000004 -143.54731999999996 97.90398000000003 L -131.58496999999994 115.62597000000004 L -131.58496999999994 115.62597000000004 C -121.83401999999994 130.07183000000003 -108.92008999999995 142.10632000000004 -93.82348999999994 150.81589000000002 L -53.86295999999994 173.87004000000002 C -53.86295999999994 173.87004000000002 -24.024249999999938 190.80552 21.94349000000006 185.16036000000003 C 67.91123000000006 179.51520000000002 69.52414000000006 176.28939000000003 101.78220000000007 153.70875000000004 C 132.84318000000007 131.96606000000003 139.69369000000006 120.74624000000003 153.38493000000008 100.46759000000003 L 153.38493000000008 100.46759000000003 C 154.4615000000001 98.87303000000003 155.30567000000008 97.13338000000003 155.89205000000007 95.30096000000003 L 174.36285000000007 37.579710000000034 L 63.87898000000007 20.644230000000036 L 44.88632000000007 41.53616000000004 L 44.88632000000007 41.53616000000004 C 41.30537000000007 45.62920000000004 36.42899000000007 48.370300000000036 31.07101000000007 49.30201000000004 L 27.36103000000007 50.410930000000036 L 27.36103000000007 50.410930000000036 C 15.087700000000071 54.19235000000003 1.7448300000000714 51.84367000000004 -8.499549999999928 44.098560000000035 L -13.050429999999928 40.82883000000003 L -13.050429999999928 40.82883000000003 C -16.046759999999928 38.67643000000003 -18.669089999999926 36.04635000000003 -20.812639999999927 33.04369000000003 L -28.56464999999993 22.190870000000032 L -28.56464999999993 22.190870000000032 C -31.96077999999993 17.436280000000032 -34.46048999999993 12.101690000000032 -35.94084999999993 6.449400000000033 L -37.82290999999993 -0.7366499999999672 L -37.82290999999993 -0.7366499999999672 C -40.83042999999993 -12.219919999999966 -38.54657999999993 -24.446419999999968 -31.59646999999993 -34.06964999999997 L -21.60487999999993 -47.90415999999997 L 5.008020000000069 -61.61383999999997 L 35.65318000000007 -59.194489999999966 L 52.58866000000007 -43.065459999999966 L 130.00801000000007 -95.48480999999997 z" stroke-linecap="round" />
</g>
<g transform="matrix(1 0 0 1 187.4851414541 255.4079679546)" id="E5UkXv5BYVcGsHPzdbx0C"  >
<path style="stroke: rgb(0,0,0); stroke-width: 12; stroke-dasharray: none; stroke-linecap: butt; stroke-dashoffset: 0; stroke-linejoin: miter; stroke-miterlimit: 4; fill: rgb(250,227,130); fill-rule: nonzero; opacity: 1;" vector-effect="non-scaling-stroke"  transform=" translate(-0.0000163789, 0.0000056754)" d="M 147.74992 -107.58156 L 111.4596 -143.06543 L 89.24636 -158.98492 L 89.24636 -158.98492 C 72.04033 -171.31590999999997 52.166309999999996 -179.41085999999999 31.241229999999995 -182.61115999999998 L 16.896799999999995 -184.80500999999998 L 16.896799999999995 -184.80500999999998 C 2.091109999999995 -187.06940999999998 -12.993070000000003 -186.78085 -27.701320000000006 -183.95183999999998 C -49.68802000000001 -179.72288999999998 -75.40617 -174.33826999999997 -91.76620000000001 -161.61380999999997 C -109.20805000000001 -148.04792999999998 -120.89020000000001 -136.24705999999998 -134.1748 -122.65938999999997 L -134.1748 -122.65938999999997 C -140.79864 -115.88443999999997 -146.19981 -108.01407999999998 -150.13912 -99.39682999999997 L -160.31754999999998 -77.13151999999997 L -160.31754999999998 -77.13151999999997 C -166.72545 -63.11423999999997 -170.83647 -48.157329999999966 -172.49302999999998 -32.83411999999996 L -173.39431999999996 -24.497209999999964 L -173.39431999999996 -24.497209999999964 C -175.41275999999996 -5.826679999999964 -174.27111999999997 13.050490000000035 -170.01734999999996 31.34169000000004 L -167.10312999999996 43.872830000000036 L -167.10312999999996 43.872830000000036 C -162.61537999999996 63.170170000000034 -154.63176999999996 81.48258000000004 -143.54731999999996 97.90398000000003 L -131.58496999999994 115.62597000000004 L -131.58496999999994 115.62597000000004 C -121.83401999999994 130.07183000000003 -108.92008999999995 142.10632000000004 -93.82348999999994 150.81589000000002 L -53.86295999999994 173.87004000000002 C -53.86295999999994 173.87004000000002 -24.024249999999938 190.80552 21.94349000000006 185.16036000000003 C 67.91123000000006 179.51520000000002 69.52414000000006 176.28939000000003 101.78220000000007 153.70875000000004 C 132.84318000000007 131.96606000000003 139.69369000000006 120.74624000000003 153.38493000000008 100.46759000000003 L 153.38493000000008 100.46759000000003 C 154.4615000000001 98.87303000000003 155.30567000000008 97.13338000000003 155.89205000000007 95.30096000000003 L 174.36285000000007 37.579710000000034 L 63.87898000000007 20.644230000000036 L 44.88632000000007 41.53616000000004 L 44.88632000000007 41.53616000000004 C 41.30537000000007 45.62920000000004 36.42899000000007 48.370300000000036 31.07101000000007 49.30201000000004 L 27.36103000000007 50.410930000000036 L 27.36103000000007 50.410930000000036 C 15.087700000000071 54.19235000000003 1.7448300000000714 51.84367000000004 -8.499549999999928 44.098560000000035 L -13.050429999999928 40.82883000000003 L -13.050429999999928 40.82883000000003 C -16.046759999999928 38.67643000000003 -18.669089999999926 36.04635000000003 -20.812639999999927 33.04369000000003 L -28.56464999999993 22.190870000000032 L -28.56464999999993 22.190870000000032 C -31.96077999999993 17.436280000000032 -34.46048999999993 12.101690000000032 -35.94084999999993 6.449400000000033 L -37.82290999999993 -0.7366499999999672 L -37.82290999999993 -0.7366499999999672 C -40.83042999999993 -12.219919999999966 -38.54657999999993 -24.446419999999968 -31.59646999999993 -34.06964999999997 L -21.60487999999993 -47.90415999999997 L 5.008020000000069 -61.61383999999997 L 35.65318000000007 -59.194489999999966 L 52.58866000000007 -43.065459999999966 L 130.00801000000007 -95.48480999999997 z" stroke-linecap="round" />
</g>
<g transform="matrix(1 0 0 1 256 176.3194123004)" id="Jnq40PDgZheapynDIuS5F"  >
<path style="stroke: rgb(0,0,0); stroke-width: 10; stroke-dasharray: none; stroke-linecap: butt; stroke-dashoffset: 0; stroke-linejoin: miter; stroke-miterlimit: 4; fill: rgb(250,227,130); fill-rule: nonzero; opacity: 1;" vector-effect="non-scaling-stroke"  transform=" translate(0, 0)" d="M -90.32258 51.55222 L -82.6859 42.99402 L -82.6859 42.99402 C -74.54821000000001 33.874359999999996 -62.809340000000006 28.79828 -50.59094 29.11563 C -38.37254 29.43298 -26.913000000000004 35.111599999999996 -19.259700000000002 44.6414 L -13.709680000000002 51.55222 L 75.80645 -15.784979999999997 L 94.35484 -51.552209999999995 L -5.645160000000004 18.1393 L -12.215050000000005 11.0917 L -12.215050000000005 11.0917 C -20.468210000000006 2.238439999999999 -31.936130000000006 -2.9222300000000008 -44.03578 -3.2279100000000014 C -56.13543 -3.5335900000000016 -67.84931 1.0414099999999982 -76.53899000000001 9.466639999999998 L -76.53899000000001 9.466639999999998 L -76.53899000000001 9.466639999999998 C -82.43558000000002 15.183779999999999 -87.05668000000001 22.083099999999998 -90.09908000000001 29.71194 L -94.35484000000001 40.38328 z" stroke-linecap="round" />
</g>
<g transform="matrix(1 0 0 1 194.4123439149 234.1238318521)" id="Bc9Vz1rQ5n6oxHWFkV16j"  >
<path style="stroke: rgb(0,0,0); stroke-width: 12; stroke-dasharray: none; stroke-linecap: butt; stroke-dashoffset: 0; stroke-linejoin: miter; stroke-miterlimit: 4; fill: rgb(236,154,0); fill-rule: nonzero; opacity: 1;" vector-effect="non-scaling-stroke"  transform=" translate(0, 0)" d="M 147.74992 -107.58156 L 111.4596 -143.06543 L 89.24636 -158.98492 L 89.24636 -158.98492 C 72.04033 -171.31590999999997 52.166309999999996 -179.41085999999999 31.241229999999995 -182.61115999999998 L 16.896799999999995 -184.80500999999998 L 16.896799999999995 -184.80500999999998 C 2.091109999999995 -187.06940999999998 -12.993070000000003 -186.78085 -27.701320000000006 -183.95183999999998 C -49.68802000000001 -179.72288999999998 -75.40617 -174.33826999999997 -91.76620000000001 -161.61380999999997 C -109.20805000000001 -148.04792999999998 -120.89020000000001 -136.24705999999998 -134.1748 -122.65938999999997 L -134.1748 -122.65938999999997 C -140.79864 -115.88443999999997 -146.19981 -108.01407999999998 -150.13912 -99.39682999999997 L -160.31754999999998 -77.13151999999997 L -160.31754999999998 -77.13151999999997 C -166.72545 -63.11423999999997 -170.83647 -48.157329999999966 -172.49302999999998 -32.83411999999996 L -173.39431999999996 -24.497209999999964 L -173.39431999999996 -24.497209999999964 C -175.41275999999996 -5.826679999999964 -174.27111999999997 13.050490000000035 -170.01734999999996 31.34169000000004 L -167.10312999999996 43.872830000000036 L -167.10312999999996 43.872830000000036 C -162.61537999999996 63.170170000000034 -154.63176999999996 81.48258000000004 -143.54731999999996 97.90398000000003 L -131.58496999999994 115.62597000000004 L -131.58496999999994 115.62597000000004 C -121.83401999999994 130.07183000000003 -108.92008999999995 142.10632000000004 -93.82348999999994 150.81589000000002 L -53.86295999999994 173.87004000000002 C -53.86295999999994 173.87004000000002 -24.024249999999938 190.80552 21.94349000000006 185.16036000000003 C 67.91123000000006 179.51520000000002 69.52414000000006 176.28939000000003 101.78220000000007 153.70875000000004 C 132.84318000000007 131.96606000000003 139.69369000000006 120.74624000000003 153.38493000000008 100.46759000000003 L 153.38493000000008 100.46759000000003 C 154.4615000000001 98.87303000000003 155.30567000000008 97.13338000000003 155.89205000000007 95.30096000000003 L 174.36285000000007 37.579710000000034 L 63.87898000000007 20.644230000000036 L 44.88632000000007 41.53616000000004 L 44.88632000000007 41.53616000000004 C 41.30537000000007 45.62920000000004 36.42899000000007 48.370300000000036 31.07101000000007 49.30201000000004 L 27.36103000000007 50.410930000000036 L 27.36103000000007 50.410930000000036 C 15.087700000000071 54.19235000000003 1.7448300000000714 51.84367000000004 -8.499549999999928 44.098560000000035 L -13.050429999999928 40.82883000000003 L -13.050429999999928 40.82883000000003 C -16.046759999999928 38.67643000000003 -18.669089999999926 36.04635000000003 -20.812639999999927 33.04369000000003 L -28.56464999999993 22.190870000000032 L -28.56464999999993 22.190870000000032 C -31.96077999999993 17.436280000000032 -34.46048999999993 12.101690000000032 -35.94084999999993 6.449400000000033 L -37.82290999999993 -0.7366499999999672 L -37.82290999999993 -0.7366499999999672 C -40.83042999999993 -12.219919999999966 -38.54657999999993 -24.446419999999968 -31.59646999999993 -34.06964999999997 L -21.60487999999993 -47.90415999999997 L 5.008020000000069 -61.61383999999997 L 35.65318000000007 -59.194489999999966 L 52.58866000000007 -43.065459999999966 L 130.00801000000007 -95.48480999999997 z" stroke-linecap="round" />
</g>
</svg>